<svg width="30" height="30" viewBox="0 0 30 30" fill="none" xmlns="http://www.w3.org/2000/svg">
<path d="M1 5V23.7011C1 29.1145 3.85336 28.9998 5.5 28.9998H24.6206C24.6206 28.9998 26.0412 28.7783 27 28C27.9588 27.2217 28 24.5 28 24.5V9.5V4.97214C28 3.45705 27.144 2.072 25.7889 1.39443L25.6334 1.31672C25.2169 1.10844 24.7575 1 24.2918 1H8.38516C8.13073 1 7.87862 1.04855 7.64238 1.14305L7.46919 1.21232C6.23899 1.7044 5.33622 2.77889 5.06358 4.0755C5.02131 4.27656 5 4.48145 5 4.68691V24.5" stroke="#2A322E" stroke-width="2" stroke-miterlimit="10" stroke-linecap="round" stroke-linejoin="round"/>
<path d="M9 6H24M18.5 12H24M18.5 17H24M24 23H9M9 13V17C9 17.5523 9.44772 18 10 18H13C13.5523 18 14 17.5523 14 17V13C14 12.4477 13.5523 12 13 12H10C9.44772 12 9 12.4477 9 13Z" stroke="#2A322E" stroke-width="2" stroke-linecap="round"/>
</svg>
